<svg xmlns="http://www.w3.org/2000/svg" viewBox="0 0 360 80" role="img" aria-label="RaceIQ MotoGP">
  <rect width="360" height="80" rx="0" fill="none"/>
  <g transform="translate(8,22)" fill="#CC0000"><path d="M0 0 L15.12 0 L25.919999999999998 18.0 L15.12 36 L0 36 L10.799999999999999 18.0 Z"/><path d="M14.4 0 L29.52 0 L40.32000000000001 18.0 L29.52 36 L14.4 36 L25.2 18.0 Z" opacity="0.55"/></g>
  <g font-family="'Saira Condensed', 'Arial Narrow', system-ui, sans-serif" font-weight="700">
    <text x="64" y="46" font-size="34" letter-spacing="1.5" fill="#f4f5f7">Race<tspan fill="#CC0000">IQ</tspan></text>
    <text x="66" y="66" font-size="15" letter-spacing="3.5" fill="#CC0000">MotoGP</text>
  </g>
  <rect x="250.0" y="54" width="1.4" height="6" fill="#CC0000" opacity="0.9"/><rect x="258.3" y="57" width="1.4" height="3" fill="#CC0000" opacity="0.4"/><rect x="266.7" y="57" width="1.4" height="3" fill="#CC0000" opacity="0.4"/><rect x="275.0" y="54" width="1.4" height="6" fill="#CC0000" opacity="0.9"/><rect x="283.3" y="57" width="1.4" height="3" fill="#CC0000" opacity="0.4"/><rect x="291.7" y="57" width="1.4" height="3" fill="#CC0000" opacity="0.4"/><rect x="300.0" y="54" width="1.4" height="6" fill="#CC0000" opacity="0.9"/><rect x="308.3" y="57" width="1.4" height="3" fill="#CC0000" opacity="0.4"/><rect x="316.7" y="57" width="1.4" height="3" fill="#CC0000" opacity="0.4"/><rect x="325.0" y="54" width="1.4" height="6" fill="#CC0000" opacity="0.9"/><rect x="333.3" y="57" width="1.4" height="3" fill="#CC0000" opacity="0.4"/><rect x="341.7" y="57" width="1.4" height="3" fill="#CC0000" opacity="0.4"/><rect x="350.0" y="54" width="1.4" height="6" fill="#CC0000" opacity="0.9"/>
</svg>
