<svg xmlns="http://www.w3.org/2000/svg" viewBox="0 0 340 80" role="img" aria-label="RaceIQ F2">
  <rect width="340" height="80" rx="0" fill="none"/>
  <g transform="translate(8,22)" fill="#1E9BD7"><path d="M0 0 L15.12 0 L25.919999999999998 18.0 L15.12 36 L0 36 L10.799999999999999 18.0 Z"/><path d="M14.4 0 L29.52 0 L40.32000000000001 18.0 L29.52 36 L14.4 36 L25.2 18.0 Z" opacity="0.55"/></g>
  <g font-family="'Saira Condensed', 'Arial Narrow', system-ui, sans-serif" font-weight="700">
    <text x="64" y="46" font-size="34" letter-spacing="1.5" fill="#f4f5f7">Race<tspan fill="#1E9BD7">IQ</tspan></text>
    <text x="66" y="66" font-size="15" letter-spacing="4" fill="#1E9BD7">F2</text>
  </g>
  <rect x="180.0" y="54" width="1.4" height="6" fill="#1E9BD7" opacity="0.9"/><rect x="188.3" y="57" width="1.4" height="3" fill="#1E9BD7" opacity="0.4"/><rect x="196.7" y="57" width="1.4" height="3" fill="#1E9BD7" opacity="0.4"/><rect x="205.0" y="54" width="1.4" height="6" fill="#1E9BD7" opacity="0.9"/><rect x="213.3" y="57" width="1.4" height="3" fill="#1E9BD7" opacity="0.4"/><rect x="221.7" y="57" width="1.4" height="3" fill="#1E9BD7" opacity="0.4"/><rect x="230.0" y="54" width="1.4" height="6" fill="#1E9BD7" opacity="0.9"/><rect x="238.3" y="57" width="1.4" height="3" fill="#1E9BD7" opacity="0.4"/><rect x="246.7" y="57" width="1.4" height="3" fill="#1E9BD7" opacity="0.4"/><rect x="255.0" y="54" width="1.4" height="6" fill="#1E9BD7" opacity="0.9"/><rect x="263.3" y="57" width="1.4" height="3" fill="#1E9BD7" opacity="0.4"/><rect x="271.7" y="57" width="1.4" height="3" fill="#1E9BD7" opacity="0.4"/><rect x="280.0" y="54" width="1.4" height="6" fill="#1E9BD7" opacity="0.9"/><rect x="288.3" y="57" width="1.4" height="3" fill="#1E9BD7" opacity="0.4"/><rect x="296.7" y="57" width="1.4" height="3" fill="#1E9BD7" opacity="0.4"/><rect x="305.0" y="54" width="1.4" height="6" fill="#1E9BD7" opacity="0.9"/><rect x="313.3" y="57" width="1.4" height="3" fill="#1E9BD7" opacity="0.4"/><rect x="321.7" y="57" width="1.4" height="3" fill="#1E9BD7" opacity="0.4"/><rect x="330.0" y="54" width="1.4" height="6" fill="#1E9BD7" opacity="0.9"/>
</svg>
