<svg xmlns="http://www.w3.org/2000/svg" viewBox="0 0 1200 630">
  <rect width="1200" height="630" fill="#0a0b0d"/>
  <g transform="translate(90,250)" fill="#38e1c6"><path d="M0 0 L54.6 0 L93.6 65.0 L54.6 130 L0 130 L39.0 65.0 Z"/><path d="M52.0 0 L106.6 0 L145.60000000000002 65.0 L106.6 130 L52.0 130 L91.0 65.0 Z" opacity="0.55"/></g>
  <g font-family="'Saira Condensed', 'Arial Narrow', system-ui, sans-serif" font-weight="700">
    <text x="270" y="345" font-size="82" letter-spacing="2" fill="#f4f5f7">Motorsport<tspan fill="#38e1c6">Verse</tspan></text>
    <text x="272" y="400" font-size="30" letter-spacing="6" fill="#38e1c6">OPEN MOTORSPORT AI ECOSYSTEM</text>
  </g>
  <rect x="270.0" y="464" width="1.4" height="6" fill="#38e1c6" opacity="0.9"/><rect x="303.3" y="467" width="1.4" height="3" fill="#38e1c6" opacity="0.4"/><rect x="336.7" y="467" width="1.4" height="3" fill="#38e1c6" opacity="0.4"/><rect x="370.0" y="464" width="1.4" height="6" fill="#38e1c6" opacity="0.9"/><rect x="403.3" y="467" width="1.4" height="3" fill="#38e1c6" opacity="0.4"/><rect x="436.7" y="467" width="1.4" height="3" fill="#38e1c6" opacity="0.4"/><rect x="470.0" y="464" width="1.4" height="6" fill="#38e1c6" opacity="0.9"/><rect x="503.3" y="467" width="1.4" height="3" fill="#38e1c6" opacity="0.4"/><rect x="536.7" y="467" width="1.4" height="3" fill="#38e1c6" opacity="0.4"/><rect x="570.0" y="464" width="1.4" height="6" fill="#38e1c6" opacity="0.9"/><rect x="603.3" y="467" width="1.4" height="3" fill="#38e1c6" opacity="0.4"/><rect x="636.7" y="467" width="1.4" height="3" fill="#38e1c6" opacity="0.4"/><rect x="670.0" y="464" width="1.4" height="6" fill="#38e1c6" opacity="0.9"/><rect x="703.3" y="467" width="1.4" height="3" fill="#38e1c6" opacity="0.4"/><rect x="736.7" y="467" width="1.4" height="3" fill="#38e1c6" opacity="0.4"/><rect x="770.0" y="464" width="1.4" height="6" fill="#38e1c6" opacity="0.9"/><rect x="803.3" y="467" width="1.4" height="3" fill="#38e1c6" opacity="0.4"/><rect x="836.7" y="467" width="1.4" height="3" fill="#38e1c6" opacity="0.4"/><rect x="870.0" y="464" width="1.4" height="6" fill="#38e1c6" opacity="0.9"/>
</svg>
