<svg xmlns="http://www.w3.org/2000/svg" viewBox="0 0 340 80" role="img" aria-label="Prism Cup Karting League">
  <rect width="340" height="80" rx="0" fill="none"/>
  <g transform="translate(8,22)" fill="#7C4DFF"><path d="M0 0 L15.12 0 L25.92 18.0 L15.12 36 L0 36 L10.8 18.0 Z"/><path d="M14.4 0 L29.52 0 L40.32 18.0 L29.52 36 L14.4 36 L25.2 18.0 Z" opacity="0.55"/></g>
  <g font-family="'Saira Condensed', 'Arial Narrow', system-ui, sans-serif" font-weight="700">
    <text x="64" y="46" font-size="34" letter-spacing="1.5" fill="#f4f5f7">Prism<tspan fill="#7C4DFF"> Cup</tspan></text>
    <text x="66" y="66" font-size="13" letter-spacing="4" fill="#7C4DFF">KARTING LEAGUE</text>
  </g>
  <rect x="216.0" y="54" width="1.4" height="6" fill="#FF5A5F" opacity="0.9"/><rect x="224.3" y="57" width="1.4" height="3" fill="#7C4DFF" opacity="0.4"/><rect x="232.7" y="57" width="1.4" height="3" fill="#7C4DFF" opacity="0.4"/><rect x="241.0" y="54" width="1.4" height="6" fill="#FFB84D" opacity="0.9"/><rect x="249.3" y="57" width="1.4" height="3" fill="#7C4DFF" opacity="0.4"/><rect x="257.7" y="57" width="1.4" height="3" fill="#7C4DFF" opacity="0.4"/><rect x="266.0" y="54" width="1.4" height="6" fill="#6EE7A0" opacity="0.9"/><rect x="274.3" y="57" width="1.4" height="3" fill="#7C4DFF" opacity="0.4"/><rect x="282.7" y="57" width="1.4" height="3" fill="#7C4DFF" opacity="0.4"/><rect x="291.0" y="54" width="1.4" height="6" fill="#5AC8FF" opacity="0.9"/><rect x="299.3" y="57" width="1.4" height="3" fill="#7C4DFF" opacity="0.4"/><rect x="307.7" y="57" width="1.4" height="3" fill="#7C4DFF" opacity="0.4"/><rect x="316.0" y="54" width="1.4" height="6" fill="#7C4DFF" opacity="0.9"/><rect x="324.3" y="57" width="1.4" height="3" fill="#7C4DFF" opacity="0.4"/><rect x="332.7" y="57" width="1.4" height="3" fill="#E06CF5" opacity="0.9"/>
</svg>
